<svg width="54" height="17" viewBox="0 0 54 17" fill="none" xmlns="http://www.w3.org/2000/svg">
<path d="M11.88 8.604C11.984 8.604 12.064 8.652 12.12 8.748C12.184 8.844 12.216 8.976 12.216 9.144C12.216 9.456 12.14 9.704 11.988 9.888C11.196 10.856 10.352 11.34 9.456 11.34C8.68 11.34 8.06 11.04 7.596 10.44C7.132 9.84 6.9 8.98 6.9 7.86C6.9 7.588 6.912 7.316 6.936 7.044C6.408 7.14 5.832 7.212 5.208 7.26C4.792 7.292 4.508 7.312 4.356 7.32C4.196 8.136 3.972 9.136 3.684 10.32C3.516 11.016 3.196 11.364 2.724 11.364C2.212 11.364 1.956 11.132 1.956 10.668C1.956 10.564 1.976 10.42 2.016 10.236C2.288 9.14 2.504 8.212 2.664 7.452L2.088 7.476C1.824 7.476 1.632 7.432 1.512 7.344C1.392 7.248 1.332 7.096 1.332 6.888C1.332 6.624 1.408 6.432 1.56 6.312C1.712 6.184 1.964 6.112 2.316 6.096L2.952 6.072C3.16 4.944 3.264 4.084 3.264 3.492C3.264 3.116 3.208 2.86 3.096 2.724C2.984 2.588 2.836 2.52 2.652 2.52C2.092 2.52 1.46 2.988 0.756 3.924C0.652 4.06 0.536 4.128 0.408 4.128C0.296 4.128 0.2 4.076 0.12 3.972C0.04 3.868 0 3.736 0 3.576C0 3.328 0.1 3.064 0.3 2.784C0.652 2.296 1.096 1.896 1.632 1.584C2.168 1.264 2.712 1.104 3.264 1.104C3.784 1.104 4.184 1.284 4.464 1.644C4.752 1.996 4.896 2.548 4.896 3.3C4.896 3.964 4.8 4.864 4.608 6L5.784 5.94C6.288 5.916 6.72 5.876 7.08 5.82C7.224 4.94 7.444 4.116 7.74 3.348C8.036 2.58 8.404 1.956 8.844 1.476C9.284 0.996 9.776 0.756001 10.32 0.756001C10.72 0.756001 11.036 0.916 11.268 1.236C11.5 1.548 11.616 1.96 11.616 2.472C11.616 4.456 10.604 5.832 8.58 6.6C8.556 6.92 8.544 7.252 8.544 7.596C8.544 8.436 8.648 9.032 8.856 9.384C9.064 9.736 9.356 9.912 9.732 9.912C10.06 9.912 10.36 9.828 10.632 9.66C10.904 9.484 11.212 9.188 11.556 8.772C11.652 8.66 11.76 8.604 11.88 8.604ZM10.26 1.8C10.084 1.8 9.896 1.96 9.696 2.28C9.504 2.6 9.32 3.036 9.144 3.588C8.968 4.14 8.828 4.744 8.724 5.4C9.364 5.136 9.836 4.76 10.14 4.272C10.444 3.784 10.596 3.156 10.596 2.388C10.596 2.204 10.564 2.06 10.5 1.956C10.436 1.852 10.356 1.8 10.26 1.8Z" fill="#263238"/>
<path d="M12.4686 11.34C12.1086 11.34 11.8126 11.176 11.5806 10.848C11.3566 10.512 11.2446 10.096 11.2446 9.6C11.2446 9 11.2846 8.452 11.3646 7.956C11.4446 7.452 11.5766 6.92 11.7606 6.36C11.8406 6.12 11.9526 5.948 12.0966 5.844C12.2406 5.74 12.4686 5.688 12.7806 5.688C12.9566 5.688 13.0766 5.716 13.1406 5.772C13.2126 5.828 13.2486 5.912 13.2486 6.024C13.2486 6.088 13.2046 6.304 13.1166 6.672C13.0366 6.968 12.9726 7.236 12.9246 7.476C12.7646 8.316 12.6846 8.876 12.6846 9.156C12.6846 9.324 12.7046 9.444 12.7446 9.516C12.7846 9.58 12.8486 9.612 12.9366 9.612C13.0566 9.612 13.2046 9.492 13.3806 9.252C13.5646 9.012 13.7566 8.648 13.9566 8.16C14.1646 7.672 14.3646 7.072 14.5566 6.36C14.6206 6.12 14.7166 5.948 14.8446 5.844C14.9806 5.74 15.1806 5.688 15.4446 5.688C15.6286 5.688 15.7566 5.712 15.8286 5.76C15.9006 5.8 15.9366 5.88 15.9366 6C15.9366 6.2 15.8366 6.748 15.6366 7.644C15.4126 8.668 15.3006 9.3 15.3006 9.54C15.3006 9.692 15.3326 9.812 15.3966 9.9C15.4606 9.98 15.5446 10.02 15.6486 10.02C15.8086 10.02 15.9966 9.924 16.2126 9.732C16.4366 9.532 16.7326 9.212 17.1006 8.772C17.1966 8.66 17.3046 8.604 17.4246 8.604C17.5286 8.604 17.6086 8.652 17.6646 8.748C17.7286 8.844 17.7606 8.976 17.7606 9.144C17.7606 9.464 17.6846 9.712 17.5326 9.888C17.1886 10.312 16.8166 10.66 16.4166 10.932C16.0246 11.204 15.5766 11.34 15.0726 11.34C14.6886 11.34 14.4046 11.192 14.2206 10.896C14.0446 10.6 13.9566 10.184 13.9566 9.648C13.8206 10.192 13.6166 10.612 13.3446 10.908C13.0726 11.196 12.7806 11.34 12.4686 11.34Z" fill="#263238"/>
<path d="M23.6035 8.604C23.7075 8.604 23.7875 8.652 23.8435 8.748C23.9075 8.844 23.9395 8.976 23.9395 9.144C23.9395 9.464 23.8635 9.712 23.7115 9.888C23.3835 10.288 23.0235 10.632 22.6315 10.92C22.2395 11.2 21.8515 11.34 21.4675 11.34C20.8595 11.34 20.3955 10.984 20.0755 10.272C19.7395 10.696 19.4435 10.98 19.1875 11.124C18.9395 11.268 18.6475 11.34 18.3115 11.34C17.8235 11.34 17.4195 11.16 17.0995 10.8C16.7875 10.432 16.6315 9.956 16.6315 9.372C16.6315 8.732 16.7675 8.14 17.0395 7.596C17.3115 7.044 17.6835 6.596 18.1555 6.252C18.6355 5.9 19.1715 5.692 19.7635 5.628C19.9155 4.076 20.2035 2.752 20.6275 1.656C21.0595 0.552 21.6235 0 22.3195 0C22.6635 0 22.9475 0.156 23.1715 0.468C23.4035 0.78 23.5195 1.252 23.5195 1.884C23.5195 2.78 23.2995 3.828 22.8595 5.028C22.4195 6.228 21.8315 7.46 21.0955 8.724C21.1275 9.188 21.1955 9.52 21.2995 9.72C21.4115 9.92 21.5515 10.02 21.7195 10.02C21.9355 10.02 22.1555 9.924 22.3795 9.732C22.6035 9.54 22.9035 9.22 23.2795 8.772C23.3755 8.66 23.4835 8.604 23.6035 8.604ZM22.1875 1.176C22.0355 1.176 21.8835 1.448 21.7315 1.992C21.5795 2.528 21.4475 3.232 21.3355 4.104C21.2315 4.976 21.1555 5.888 21.1075 6.84C22.0035 4.888 22.4515 3.32 22.4515 2.136C22.4515 1.832 22.4235 1.596 22.3675 1.428C22.3195 1.26 22.2595 1.176 22.1875 1.176ZM18.7315 10.128C18.8835 10.128 19.0355 10.068 19.1875 9.948C19.3395 9.82 19.5315 9.588 19.7635 9.252C19.6835 8.82 19.6435 8.336 19.6435 7.8C19.6435 7.608 19.6515 7.296 19.6675 6.864C19.2275 7 18.8595 7.296 18.5635 7.752C18.2755 8.2 18.1315 8.7 18.1315 9.252C18.1315 9.836 18.3315 10.128 18.7315 10.128Z" fill="#263238"/>
<path d="M29.6621 8.604C29.7661 8.604 29.8461 8.652 29.9021 8.748C29.9661 8.844 29.9981 8.976 29.9981 9.144C29.9981 9.464 29.9221 9.712 29.7701 9.888C29.4421 10.288 29.0821 10.632 28.6901 10.92C28.2981 11.2 27.9101 11.34 27.5261 11.34C26.9181 11.34 26.4541 10.984 26.1341 10.272C25.7981 10.696 25.5021 10.98 25.2461 11.124C24.9981 11.268 24.7061 11.34 24.3701 11.34C23.8821 11.34 23.4781 11.16 23.1581 10.8C22.8461 10.432 22.6901 9.956 22.6901 9.372C22.6901 8.732 22.8261 8.14 23.0981 7.596C23.3701 7.044 23.7421 6.596 24.2141 6.252C24.6941 5.9 25.2301 5.692 25.8221 5.628C25.9741 4.076 26.2621 2.752 26.6861 1.656C27.1181 0.552 27.6821 0 28.3781 0C28.7221 0 29.0061 0.156 29.2301 0.468C29.4621 0.78 29.5781 1.252 29.5781 1.884C29.5781 2.78 29.3581 3.828 28.9181 5.028C28.4781 6.228 27.8901 7.46 27.1541 8.724C27.1861 9.188 27.2541 9.52 27.3581 9.72C27.4701 9.92 27.6101 10.02 27.7781 10.02C27.9941 10.02 28.2141 9.924 28.4381 9.732C28.6621 9.54 28.9621 9.22 29.3381 8.772C29.4341 8.66 29.5421 8.604 29.6621 8.604ZM28.2461 1.176C28.0941 1.176 27.9421 1.448 27.7901 1.992C27.6381 2.528 27.5061 3.232 27.3941 4.104C27.2901 4.976 27.2141 5.888 27.1661 6.84C28.0621 4.888 28.5101 3.32 28.5101 2.136C28.5101 1.832 28.4821 1.596 28.4261 1.428C28.3781 1.26 28.3181 1.176 28.2461 1.176ZM24.7901 10.128C24.9421 10.128 25.0941 10.068 25.2461 9.948C25.3981 9.82 25.5901 9.588 25.8221 9.252C25.7421 8.82 25.7021 8.336 25.7021 7.8C25.7021 7.608 25.7101 7.296 25.7261 6.864C25.2861 7 24.9181 7.296 24.6221 7.752C24.3341 8.2 24.1901 8.7 24.1901 9.252C24.1901 9.836 24.3901 10.128 24.7901 10.128Z" fill="#263238"/>
<path d="M33.5699 8.604C33.6739 8.604 33.7539 8.652 33.8099 8.748C33.8739 8.844 33.9059 8.976 33.9059 9.144C33.9059 9.464 33.8299 9.712 33.6779 9.888C33.3339 10.312 32.9579 10.66 32.5499 10.932C32.1499 11.204 31.6939 11.34 31.1819 11.34C30.4779 11.34 29.9539 11.02 29.6099 10.38C29.2739 9.74 29.1059 8.912 29.1059 7.896C29.1059 6.92 29.2299 5.808 29.4779 4.56C29.7339 3.312 30.1059 2.24 30.5939 1.344C31.0899 0.448 31.6779 0 32.3579 0C32.7419 0 33.0419 0.18 33.2579 0.54C33.4819 0.892 33.5939 1.4 33.5939 2.064C33.5939 3.016 33.3299 4.12 32.8019 5.376C32.2739 6.632 31.5579 7.876 30.6539 9.108C30.7099 9.436 30.8019 9.672 30.9299 9.816C31.0579 9.952 31.2259 10.02 31.4339 10.02C31.7619 10.02 32.0499 9.928 32.2979 9.744C32.5459 9.552 32.8619 9.228 33.2459 8.772C33.3419 8.66 33.4499 8.604 33.5699 8.604ZM32.0939 1.188C31.9099 1.188 31.7019 1.52 31.4699 2.184C31.2379 2.848 31.0339 3.672 30.8579 4.656C30.6819 5.64 30.5859 6.584 30.5699 7.488C31.1379 6.552 31.5899 5.616 31.9259 4.68C32.2619 3.736 32.4299 2.876 32.4299 2.1C32.4299 1.492 32.3179 1.188 32.0939 1.188Z" fill="#263238"/>
<path d="M37.232 8.964C37.336 8.964 37.416 9.012 37.472 9.108C37.536 9.204 37.568 9.336 37.568 9.504C37.568 9.792 37.5 10.04 37.364 10.248C37.14 10.592 36.844 10.86 36.476 11.052C36.116 11.244 35.684 11.34 35.18 11.34C34.412 11.34 33.816 11.112 33.392 10.656C32.968 10.192 32.756 9.568 32.756 8.784C32.756 8.232 32.872 7.72 33.104 7.248C33.336 6.768 33.656 6.388 34.064 6.108C34.48 5.828 34.948 5.688 35.468 5.688C35.932 5.688 36.304 5.828 36.584 6.108C36.864 6.38 37.004 6.752 37.004 7.224C37.004 7.776 36.804 8.252 36.404 8.652C36.012 9.044 35.34 9.356 34.388 9.588C34.58 9.956 34.904 10.14 35.36 10.14C35.688 10.14 35.956 10.064 36.164 9.912C36.38 9.76 36.628 9.504 36.908 9.144C37.004 9.024 37.112 8.964 37.232 8.964ZM35.264 6.864C34.968 6.864 34.716 7.036 34.508 7.38C34.308 7.724 34.208 8.14 34.208 8.628V8.652C34.68 8.54 35.052 8.372 35.324 8.148C35.596 7.924 35.732 7.664 35.732 7.368C35.732 7.216 35.688 7.096 35.6 7.008C35.52 6.912 35.408 6.864 35.264 6.864Z" fill="#263238"/>
<path d="M41.2776 11.34C40.6056 11.34 40.0976 11.156 39.7536 10.788C39.4096 10.412 39.2376 9.912 39.2376 9.288C39.2376 8.936 39.2896 8.508 39.3936 8.004L40.1376 4.572C40.1536 4.508 40.1896 4.332 40.2456 4.044C40.3096 3.756 40.3416 3.444 40.3416 3.108C40.3416 2.916 40.3016 2.772 40.2216 2.676C40.1496 2.58 40.0496 2.532 39.9216 2.532C39.6816 2.532 39.4016 2.648 39.0816 2.88C38.7616 3.104 38.4256 3.452 38.0736 3.924C37.9616 4.076 37.8376 4.152 37.7016 4.152C37.5896 4.152 37.4896 4.1 37.4016 3.996C37.3216 3.884 37.2816 3.76 37.2816 3.624C37.2816 3.376 37.3936 3.096 37.6176 2.784C38.4336 1.664 39.3896 1.104 40.4856 1.104C40.9736 1.104 41.3536 1.252 41.6256 1.548C41.9056 1.844 42.0456 2.28 42.0456 2.856C42.0456 3.264 42.0176 3.64 41.9616 3.984C41.9056 4.328 41.8096 4.796 41.6736 5.388L41.1816 7.584C41.1656 7.656 41.1376 7.784 41.0976 7.968C41.0576 8.152 41.0256 8.328 41.0016 8.496C40.9776 8.656 40.9656 8.816 40.9656 8.976C40.9656 9.232 41.0376 9.436 41.1816 9.588C41.3256 9.74 41.5296 9.816 41.7936 9.816C42.2736 9.816 42.7576 9.56 43.2456 9.048C43.7416 8.536 44.1976 7.712 44.6136 6.576C45.0376 5.432 45.3656 3.972 45.5976 2.196C45.6536 1.788 45.7336 1.504 45.8376 1.344C45.9496 1.184 46.1616 1.104 46.4736 1.104C46.7536 1.104 46.9616 1.188 47.0976 1.356C47.2336 1.524 47.3016 1.796 47.3016 2.172C47.3016 2.388 47.2736 2.672 47.2176 3.024C47.1696 3.376 47.0936 3.868 46.9896 4.5C46.7736 5.724 46.6016 6.848 46.4736 7.872C46.4096 8.336 46.3776 8.68 46.3776 8.904C46.3776 9.232 46.4496 9.484 46.5936 9.66C46.7456 9.828 46.9456 9.912 47.1936 9.912C47.4576 9.912 47.7136 9.824 47.9616 9.648C48.2176 9.472 48.5176 9.18 48.8616 8.772C48.9576 8.66 49.0656 8.604 49.1856 8.604C49.2896 8.604 49.3696 8.652 49.4256 8.748C49.4896 8.844 49.5216 8.976 49.5216 9.144C49.5216 9.456 49.4456 9.704 49.2936 9.888C48.8776 10.392 48.4656 10.76 48.0576 10.992C47.6496 11.224 47.2216 11.34 46.7736 11.34C46.1096 11.34 45.6016 11.172 45.2496 10.836C44.8976 10.492 44.7216 10.048 44.7216 9.504C44.7216 9.2 44.7856 8.608 44.9136 7.728C44.5136 8.904 44.0056 9.8 43.3896 10.416C42.7816 11.032 42.0776 11.34 41.2776 11.34Z" fill="#C2185B"/>
<path d="M53.2973 7.62C53.2973 8.252 53.1493 8.852 52.8533 9.42C52.5653 9.98 52.1773 10.436 51.6893 10.788C51.2093 11.14 50.6933 11.324 50.1413 11.34C50.0373 12.884 49.8013 14.172 49.4333 15.204C49.0653 16.244 48.5253 16.764 47.8133 16.764C47.3813 16.764 47.0613 16.608 46.8533 16.296C46.6453 15.984 46.5413 15.552 46.5413 15C46.5413 14.216 46.7213 13.3 47.0813 12.252C47.4413 11.212 47.9973 10.064 48.7493 8.808C48.7493 7.64 48.7413 6.828 48.7253 6.372C48.7173 6.14 48.8093 5.956 49.0013 5.82C49.1933 5.684 49.4333 5.616 49.7213 5.616C49.8893 5.616 50.0093 5.652 50.0813 5.724C50.1613 5.788 50.2053 5.92 50.2133 6.12C50.2133 6.32 50.2173 6.468 50.2253 6.564C50.4813 6.244 50.7333 6.016 50.9813 5.88C51.2293 5.736 51.4933 5.664 51.7733 5.664C52.2213 5.664 52.5853 5.844 52.8653 6.204C53.1533 6.564 53.2973 7.036 53.2973 7.62ZM50.2013 10.188C50.4893 10.124 50.7533 9.968 50.9933 9.72C51.2413 9.464 51.4373 9.152 51.5813 8.784C51.7253 8.408 51.7973 8.016 51.7973 7.608C51.7973 7.368 51.7493 7.188 51.6533 7.068C51.5573 6.94 51.4293 6.876 51.2693 6.876C50.9813 6.876 50.6333 7.18 50.2253 7.788C50.2173 8.14 50.2133 8.656 50.2133 9.336C50.2133 9.704 50.2093 9.988 50.2013 10.188ZM47.9093 15.588C48.1253 15.588 48.3053 15.116 48.4493 14.172C48.5933 13.236 48.6853 12.068 48.7253 10.668C48.3813 11.468 48.1093 12.232 47.9093 12.96C47.7093 13.688 47.6093 14.3 47.6093 14.796C47.6093 15.052 47.6413 15.248 47.7053 15.384C47.7613 15.52 47.8293 15.588 47.9093 15.588Z" fill="#C2185B"/>
</svg>
